<svg version="1.2" xmlns="http://www.w3.org/2000/svg" viewBox="0 0 22 18" width="22" height="18"><style>.s0{fill:#a3bbc8}</style><path class="s0" d="m20.7 10.2c-0.8 1.3-3.1 3.3-4.7 4.7c-1.7 1.4-4 3.1-5 3.1c-1 0-3.3-1.7-5-3.1c-1.6-1.4-3.9-3.4-4.7-4.7c-1-1.5-1.4-2.8-1.3-4.4c0.1-1.5 0.7-3 1.9-4.1c1.1-1.1 2.6-1.7 4.1-1.7c2.5 0 4.1 1.9 4.9 2.8q0.1 0.1 0.1 0.1q0.1-0.1 0.2-0.2c0.9-0.9 2.5-2.7 4.8-2.7c1.5 0 3 0.6 4.1 1.7c1.2 1.1 1.8 2.6 1.9 4.1c0.1 2-0.6 3.4-1.3 4.4zm-1.1-0.8c-0.6 1-2.4 2.8-4.4 4.4c-2.4 2.1-3.8 2.8-4.2 2.9c-0.3-0.1-1.8-0.9-4.2-2.9c-2-1.7-3.8-3.4-4.4-4.4c-0.8-1.2-1.1-2.3-1.1-3.5c0.2-2.5 2.3-4.6 4.7-4.6c1.9 0 3.2 1.6 3.9 2.4c0.5 0.5 0.7 0.7 1.1 0.7c0.4 0 0.7-0.2 1.2-0.8c0.7-0.8 2.1-2.3 3.8-2.3c2.4 0 4.5 2.1 4.7 4.6c0 1.2-0.3 2.3-1.1 3.5z" /></svg>